<svg width="990" height="643" viewBox="0 0 990 643" fill="none" xmlns="http://www.w3.org/2000/svg">
<path d="M368.82 289.16C368.407 289.16 368.087 289.047 367.86 288.82C367.647 288.58 367.54 288.253 367.54 287.84V276.04C367.54 275.613 367.647 275.293 367.86 275.08C368.087 274.853 368.407 274.74 368.82 274.74C369.233 274.74 369.547 274.853 369.76 275.08C369.987 275.293 370.1 275.613 370.1 276.04V281.14H370.14L375.88 275.38C376.093 275.167 376.307 275.007 376.52 274.9C376.733 274.793 376.973 274.74 377.24 274.74C377.627 274.74 377.9 274.84 378.06 275.04C378.233 275.24 378.3 275.473 378.26 275.74C378.233 276.007 378.107 276.253 377.88 276.48L372.04 282.26L372.06 281.1L378.16 287.3C378.44 287.567 378.587 287.847 378.6 288.14C378.613 288.433 378.52 288.68 378.32 288.88C378.133 289.067 377.853 289.16 377.48 289.16C377.16 289.16 376.9 289.093 376.7 288.96C376.513 288.827 376.293 288.633 376.04 288.38L370.14 282.48H370.1V287.84C370.1 288.253 369.993 288.58 369.78 288.82C369.567 289.047 369.247 289.16 368.82 289.16ZM385.041 289.16C384.654 289.16 384.354 289.053 384.141 288.84C383.941 288.627 383.841 288.32 383.841 287.92V276.02C383.841 275.607 383.941 275.293 384.141 275.08C384.354 274.853 384.627 274.74 384.961 274.74C385.267 274.74 385.494 274.8 385.641 274.92C385.801 275.027 385.987 275.213 386.201 275.48L393.861 285.42H393.341V275.96C393.341 275.573 393.441 275.273 393.641 275.06C393.854 274.847 394.154 274.74 394.541 274.74C394.927 274.74 395.221 274.847 395.421 275.06C395.621 275.273 395.721 275.573 395.721 275.96V287.96C395.721 288.333 395.627 288.627 395.441 288.84C395.254 289.053 395.001 289.16 394.681 289.16C394.374 289.16 394.127 289.1 393.941 288.98C393.767 288.86 393.574 288.667 393.361 288.4L385.721 278.46H386.221V287.92C386.221 288.32 386.121 288.627 385.921 288.84C385.721 289.053 385.427 289.16 385.041 289.16ZM401.182 289.14C400.808 289.153 400.515 289.053 400.302 288.84C400.088 288.627 399.982 288.353 399.982 288.02C399.982 287.767 400.062 287.547 400.222 287.36C400.368 287.16 400.588 287.053 400.882 287.04L401.482 287C402.068 286.96 402.508 286.78 402.802 286.46C403.108 286.127 403.262 285.653 403.262 285.04V276.04C403.262 275.613 403.368 275.293 403.582 275.08C403.808 274.853 404.128 274.74 404.542 274.74C404.955 274.74 405.268 274.853 405.482 275.08C405.708 275.293 405.822 275.613 405.822 276.04V285.02C405.822 285.86 405.668 286.573 405.362 287.16C405.068 287.747 404.628 288.207 404.042 288.54C403.455 288.86 402.728 289.047 401.862 289.1L401.182 289.14ZM413.152 289.16C412.739 289.16 412.419 289.047 412.192 288.82C411.979 288.58 411.872 288.253 411.872 287.84V276.06C411.872 275.633 411.979 275.307 412.192 275.08C412.419 274.853 412.739 274.74 413.152 274.74C413.565 274.74 413.879 274.853 414.092 275.08C414.319 275.307 414.432 275.633 414.432 276.06V287.84C414.432 288.253 414.325 288.58 414.112 288.82C413.899 289.047 413.579 289.16 413.152 289.16ZM421.097 289C420.763 289 420.49 288.933 420.277 288.8C420.077 288.667 419.937 288.487 419.857 288.26C419.79 288.02 419.79 287.76 419.857 287.48C419.937 287.187 420.09 286.887 420.317 286.58L427.957 276.22V277.04H420.897C420.523 277.04 420.237 276.947 420.037 276.76C419.85 276.573 419.757 276.307 419.757 275.96C419.757 275.613 419.85 275.353 420.037 275.18C420.237 274.993 420.523 274.9 420.897 274.9H429.177C429.51 274.9 429.777 274.967 429.977 275.1C430.19 275.233 430.33 275.413 430.397 275.64C430.477 275.867 430.477 276.127 430.397 276.42C430.33 276.713 430.183 277.013 429.957 277.32L422.317 287.66V286.86H429.677C430.05 286.86 430.33 286.953 430.517 287.14C430.717 287.313 430.817 287.573 430.817 287.92C430.817 288.267 430.717 288.533 430.517 288.72C430.33 288.907 430.05 289 429.677 289H421.097ZM425.237 273.92C424.943 273.92 424.67 273.86 424.417 273.74C424.177 273.607 423.963 273.407 423.777 273.14L422.317 271.1C422.183 270.913 422.137 270.733 422.177 270.56C422.23 270.387 422.337 270.253 422.497 270.16C422.657 270.053 422.83 270.013 423.017 270.04C423.217 270.053 423.397 270.153 423.557 270.34L425.237 272.3L426.937 270.34C427.097 270.153 427.27 270.053 427.457 270.04C427.657 270.013 427.83 270.053 427.977 270.16C428.137 270.253 428.237 270.387 428.277 270.56C428.33 270.72 428.29 270.9 428.157 271.1L426.717 273.14C426.53 273.407 426.31 273.607 426.057 273.74C425.817 273.86 425.543 273.92 425.237 273.92ZM436.986 289C436.546 289 436.206 288.887 435.966 288.66C435.739 288.42 435.626 288.08 435.626 287.64V276.26C435.626 275.82 435.739 275.487 435.966 275.26C436.206 275.02 436.546 274.9 436.986 274.9H444.126C444.459 274.9 444.713 274.987 444.886 275.16C445.073 275.333 445.166 275.58 445.166 275.9C445.166 276.233 445.073 276.493 444.886 276.68C444.713 276.853 444.459 276.94 444.126 276.94H438.086V280.82H443.686C444.033 280.82 444.293 280.907 444.466 281.08C444.639 281.253 444.726 281.507 444.726 281.84C444.726 282.173 444.639 282.427 444.466 282.6C444.293 282.773 444.033 282.86 443.686 282.86H438.086V286.96H444.126C444.459 286.96 444.713 287.047 444.886 287.22C445.073 287.393 445.166 287.647 445.166 287.98C445.166 288.313 445.073 288.567 444.886 288.74C444.713 288.913 444.459 289 444.126 289H436.986ZM456.101 289.16C455.741 289.16 455.441 289.08 455.201 288.92C454.974 288.747 454.788 288.493 454.641 288.16L449.421 276.44C449.274 276.107 449.234 275.813 449.301 275.56C449.368 275.307 449.508 275.107 449.721 274.96C449.934 274.813 450.188 274.74 450.481 274.74C450.868 274.74 451.154 274.827 451.341 275C451.541 275.16 451.708 275.407 451.841 275.74L456.581 286.72H455.721L460.441 275.72C460.588 275.4 460.761 275.16 460.961 275C461.161 274.827 461.441 274.74 461.801 274.74C462.094 274.74 462.334 274.813 462.521 274.96C462.721 275.107 462.848 275.307 462.901 275.56C462.954 275.813 462.908 276.107 462.761 276.44L457.541 288.16C457.394 288.493 457.208 288.747 456.981 288.92C456.768 289.08 456.474 289.16 456.101 289.16ZM468.959 289.16C468.572 289.16 468.272 289.053 468.059 288.84C467.859 288.627 467.759 288.32 467.759 287.92V276.02C467.759 275.607 467.859 275.293 468.059 275.08C468.272 274.853 468.545 274.74 468.879 274.74C469.185 274.74 469.412 274.8 469.559 274.92C469.719 275.027 469.905 275.213 470.119 275.48L477.779 285.42H477.259V275.96C477.259 275.573 477.359 275.273 477.559 275.06C477.772 274.847 478.072 274.74 478.459 274.74C478.845 274.74 479.139 274.847 479.339 275.06C479.539 275.273 479.639 275.573 479.639 275.96V287.96C479.639 288.333 479.545 288.627 479.359 288.84C479.172 289.053 478.919 289.16 478.599 289.16C478.292 289.16 478.045 289.1 477.859 288.98C477.685 288.86 477.492 288.667 477.279 288.4L469.639 278.46H470.139V287.92C470.139 288.32 470.039 288.627 469.839 288.84C469.639 289.053 469.345 289.16 468.959 289.16ZM487.08 289C486.64 289 486.3 288.887 486.06 288.66C485.833 288.42 485.72 288.08 485.72 287.64V276.26C485.72 275.82 485.833 275.487 486.06 275.26C486.3 275.02 486.64 274.9 487.08 274.9H494.22C494.553 274.9 494.806 274.987 494.98 275.16C495.166 275.333 495.26 275.58 495.26 275.9C495.26 276.233 495.166 276.493 494.98 276.68C494.806 276.853 494.553 276.94 494.22 276.94H488.18V280.82H493.78C494.126 280.82 494.386 280.907 494.56 281.08C494.733 281.253 494.82 281.507 494.82 281.84C494.82 282.173 494.733 282.427 494.56 282.6C494.386 282.773 494.126 282.86 493.78 282.86H488.18V286.96H494.22C494.553 286.96 494.806 287.047 494.98 287.22C495.166 287.393 495.26 287.647 495.26 287.98C495.26 288.313 495.166 288.567 494.98 288.74C494.806 288.913 494.553 289 494.22 289H487.08ZM510.283 289.16C509.896 289.16 509.596 289.053 509.383 288.84C509.183 288.627 509.083 288.32 509.083 287.92V276.02C509.083 275.607 509.183 275.293 509.383 275.08C509.596 274.853 509.87 274.74 510.203 274.74C510.51 274.74 510.736 274.8 510.883 274.92C511.043 275.027 511.23 275.213 511.443 275.48L519.103 285.42H518.583V275.96C518.583 275.573 518.683 275.273 518.883 275.06C519.096 274.847 519.396 274.74 519.783 274.74C520.17 274.74 520.463 274.847 520.663 275.06C520.863 275.273 520.963 275.573 520.963 275.96V287.96C520.963 288.333 520.87 288.627 520.683 288.84C520.496 289.053 520.243 289.16 519.923 289.16C519.616 289.16 519.37 289.1 519.183 288.98C519.01 288.86 518.816 288.667 518.603 288.4L510.963 278.46H511.463V287.92C511.463 288.32 511.363 288.627 511.163 288.84C510.963 289.053 510.67 289.16 510.283 289.16ZM527.184 289.16C526.864 289.16 526.604 289.087 526.404 288.94C526.217 288.793 526.104 288.6 526.064 288.36C526.024 288.107 526.071 287.827 526.204 287.52L531.484 275.82C531.657 275.433 531.864 275.16 532.104 275C532.357 274.827 532.644 274.74 532.964 274.74C533.271 274.74 533.544 274.827 533.784 275C534.037 275.16 534.251 275.433 534.424 275.82L539.724 287.52C539.871 287.827 539.924 288.107 539.884 288.36C539.844 288.613 539.731 288.813 539.544 288.96C539.357 289.093 539.111 289.16 538.804 289.16C538.431 289.16 538.137 289.073 537.924 288.9C537.724 288.713 537.544 288.433 537.384 288.06L536.084 285.04L537.164 285.74H528.724L529.804 285.04L528.524 288.06C528.351 288.447 528.171 288.727 527.984 288.9C527.797 289.073 527.531 289.16 527.184 289.16ZM532.924 277.68L530.124 284.34L529.604 283.7H536.284L535.784 284.34L532.964 277.68H532.924ZM551.414 289.2C549.854 289.2 548.534 288.907 547.454 288.32C546.387 287.733 545.574 286.9 545.014 285.82C544.454 284.74 544.174 283.46 544.174 281.98C544.174 280.86 544.334 279.853 544.654 278.96C544.987 278.067 545.46 277.307 546.074 276.68C546.7 276.04 547.46 275.553 548.354 275.22C549.247 274.873 550.26 274.7 551.394 274.7C552.14 274.7 552.887 274.793 553.634 274.98C554.394 275.153 555.107 275.453 555.774 275.88C556 276.027 556.147 276.207 556.214 276.42C556.294 276.633 556.307 276.853 556.254 277.08C556.2 277.293 556.1 277.48 555.954 277.64C555.807 277.8 555.62 277.9 555.394 277.94C555.18 277.98 554.94 277.927 554.674 277.78C554.167 277.487 553.654 277.273 553.134 277.14C552.614 277.007 552.034 276.94 551.394 276.94C550.407 276.94 549.574 277.14 548.894 277.54C548.214 277.927 547.7 278.493 547.354 279.24C547.02 279.987 546.854 280.9 546.854 281.98C546.854 283.62 547.247 284.867 548.034 285.72C548.82 286.573 549.987 287 551.534 287C552.067 287 552.607 286.947 553.154 286.84C553.7 286.733 554.234 286.587 554.754 286.4L554.254 287.54V283.28H552.054C551.72 283.28 551.46 283.193 551.274 283.02C551.1 282.847 551.014 282.613 551.014 282.32C551.014 282.013 551.1 281.78 551.274 281.62C551.46 281.46 551.72 281.38 552.054 281.38H555.354C555.687 281.38 555.94 281.473 556.114 281.66C556.3 281.833 556.394 282.087 556.394 282.42V287.28C556.394 287.573 556.334 287.82 556.214 288.02C556.107 288.22 555.927 288.367 555.674 288.46C555.087 288.673 554.414 288.853 553.654 289C552.894 289.133 552.147 289.2 551.414 289.2ZM563.64 289.16C563.227 289.16 562.907 289.047 562.68 288.82C562.467 288.58 562.36 288.253 562.36 287.84V276.2C562.36 275.773 562.474 275.453 562.7 275.24C562.927 275.013 563.247 274.9 563.66 274.9H568.48C570.027 274.9 571.22 275.273 572.06 276.02C572.9 276.753 573.32 277.787 573.32 279.12C573.32 279.987 573.127 280.733 572.74 281.36C572.367 281.987 571.82 282.467 571.1 282.8C570.38 283.133 569.507 283.3 568.48 283.3L568.66 283H569.32C569.867 283 570.34 283.133 570.74 283.4C571.154 283.667 571.514 284.087 571.82 284.66L573.32 287.44C573.48 287.72 573.554 287.993 573.54 288.26C573.527 288.527 573.427 288.747 573.24 288.92C573.054 289.08 572.78 289.16 572.42 289.16C572.06 289.16 571.767 289.087 571.54 288.94C571.314 288.78 571.114 288.54 570.94 288.22L568.92 284.5C568.68 284.047 568.394 283.747 568.06 283.6C567.74 283.44 567.327 283.36 566.82 283.36H564.92V287.84C564.92 288.253 564.814 288.58 564.6 288.82C564.387 289.047 564.067 289.16 563.64 289.16ZM564.92 281.46H568.04C568.96 281.46 569.654 281.273 570.12 280.9C570.6 280.513 570.84 279.94 570.84 279.18C570.84 278.433 570.6 277.873 570.12 277.5C569.654 277.113 568.96 276.92 568.04 276.92H564.92V281.46ZM578.957 289.16C578.637 289.16 578.377 289.087 578.177 288.94C577.991 288.793 577.877 288.6 577.837 288.36C577.797 288.107 577.844 287.827 577.977 287.52L583.257 275.82C583.431 275.433 583.637 275.16 583.877 275C584.131 274.827 584.417 274.74 584.737 274.74C585.044 274.74 585.317 274.827 585.557 275C585.811 275.16 586.024 275.433 586.197 275.82L591.497 287.52C591.644 287.827 591.697 288.107 591.657 288.36C591.617 288.613 591.504 288.813 591.317 288.96C591.131 289.093 590.884 289.16 590.577 289.16C590.204 289.16 589.911 289.073 589.697 288.9C589.497 288.713 589.317 288.433 589.157 288.06L587.857 285.04L588.937 285.74H580.497L581.577 285.04L580.297 288.06C580.124 288.447 579.944 288.727 579.757 288.9C579.571 289.073 579.304 289.16 578.957 289.16ZM584.697 277.68L581.897 284.34L581.377 283.7H588.057L587.557 284.34L584.737 277.68H584.697ZM598.06 289C597.62 289 597.28 288.887 597.04 288.66C596.813 288.42 596.7 288.08 596.7 287.64V276.26C596.7 275.82 596.813 275.487 597.04 275.26C597.28 275.02 597.62 274.9 598.06 274.9H601.94C604.3 274.9 606.12 275.507 607.4 276.72C608.693 277.933 609.34 279.673 609.34 281.94C609.34 283.073 609.173 284.08 608.84 284.96C608.52 285.827 608.04 286.56 607.4 287.16C606.773 287.76 606 288.22 605.08 288.54C604.173 288.847 603.127 289 601.94 289H598.06ZM599.26 286.88H601.78C602.607 286.88 603.32 286.78 603.92 286.58C604.533 286.367 605.04 286.06 605.44 285.66C605.853 285.247 606.16 284.733 606.36 284.12C606.56 283.493 606.66 282.767 606.66 281.94C606.66 280.287 606.253 279.053 605.44 278.24C604.627 277.427 603.407 277.02 601.78 277.02H599.26V286.88ZM616.295 289C615.855 289 615.515 288.887 615.275 288.66C615.048 288.42 614.935 288.08 614.935 287.64V276.26C614.935 275.82 615.048 275.487 615.275 275.26C615.515 275.02 615.855 274.9 616.295 274.9H623.435C623.768 274.9 624.021 274.987 624.195 275.16C624.381 275.333 624.475 275.58 624.475 275.9C624.475 276.233 624.381 276.493 624.195 276.68C624.021 276.853 623.768 276.94 623.435 276.94H617.395V280.82H622.995C623.341 280.82 623.601 280.907 623.775 281.08C623.948 281.253 624.035 281.507 624.035 281.84C624.035 282.173 623.948 282.427 623.775 282.6C623.601 282.773 623.341 282.86 622.995 282.86H617.395V286.96H623.435C623.768 286.96 624.021 287.047 624.195 287.22C624.381 287.393 624.475 287.647 624.475 287.98C624.475 288.313 624.381 288.567 624.195 288.74C624.021 288.913 623.768 289 623.435 289H616.295Z" fill="#D740D1"/>
<mask id="mask0_761_307" style="mask-type:alpha" maskUnits="userSpaceOnUse" x="286" y="169" width="394" height="90">
<rect x="286" y="169" width="394" height="90" fill="#D9D9D9"/>
</mask>
<g mask="url(#mask0_761_307)">
<path d="M382.6 352.4C379.933 352.4 377.867 351.667 376.4 350.2C375.067 348.6 374.4 346.467 374.4 343.8V217C374.4 214.2 375.067 212.133 376.4 210.8C377.867 209.333 379.933 208.6 382.6 208.6C385.267 208.6 387.267 209.333 388.6 210.8C390.067 212.133 390.8 214.2 390.8 217V274H391.2L456.4 213.2C458 211.6 459.6 210.467 461.2 209.8C462.8 209 464.533 208.6 466.4 208.6C468.933 208.6 470.733 209.2 471.8 210.4C473 211.6 473.467 213.067 473.2 214.8C472.933 216.533 472 218.2 470.4 219.8L402.2 283L402.4 274.2L473.6 340C475.6 341.867 476.667 343.8 476.8 345.8C476.933 347.667 476.333 349.267 475 350.6C473.8 351.8 471.933 352.4 469.4 352.4C467.4 352.4 465.667 351.933 464.2 351C462.867 350.2 461.333 348.933 459.6 347.2L391.2 284.6H390.8V343.8C390.8 346.467 390.133 348.6 388.8 350.2C387.467 351.667 385.4 352.4 382.6 352.4ZM507.2 352.4C504.667 352.4 502.733 351.733 501.4 350.4C500.067 348.933 499.4 346.867 499.4 344.2V217C499.4 214.333 500.067 212.267 501.4 210.8C502.733 209.333 504.467 208.6 506.6 208.6C508.733 208.6 510.267 209 511.2 209.8C512.267 210.467 513.467 211.733 514.8 213.6L602 329.8H597.2V216.6C597.2 214.067 597.867 212.133 599.2 210.8C600.533 209.333 602.467 208.6 605 208.6C607.4 208.6 609.2 209.333 610.4 210.8C611.733 212.133 612.4 214.067 612.4 216.6V344.4C612.4 346.933 611.8 348.933 610.6 350.4C609.533 351.733 607.933 352.4 605.8 352.4C603.8 352.4 602.2 352 601 351.2C599.8 350.4 598.533 349.133 597.2 347.4L510.2 231.2H514.8V344.2C514.8 346.867 514.133 348.933 512.8 350.4C511.467 351.733 509.6 352.4 507.2 352.4Z" fill="black"/>
</g>
<mask id="mask1_761_307" style="mask-type:alpha" maskUnits="userSpaceOnUse" x="286" y="305" width="394" height="80">
<rect x="286" y="305" width="394" height="80" fill="#D9D9D9"/>
</mask>
<g mask="url(#mask1_761_307)">
<path d="M382.6 352.4C379.933 352.4 377.867 351.667 376.4 350.2C375.067 348.6 374.4 346.467 374.4 343.8V217C374.4 214.2 375.067 212.133 376.4 210.8C377.867 209.333 379.933 208.6 382.6 208.6C385.267 208.6 387.267 209.333 388.6 210.8C390.067 212.133 390.8 214.2 390.8 217V274H391.2L456.4 213.2C458 211.6 459.6 210.467 461.2 209.8C462.8 209 464.533 208.6 466.4 208.6C468.933 208.6 470.733 209.2 471.8 210.4C473 211.6 473.467 213.067 473.2 214.8C472.933 216.533 472 218.2 470.4 219.8L402.2 283L402.4 274.2L473.6 340C475.6 341.867 476.667 343.8 476.8 345.8C476.933 347.667 476.333 349.267 475 350.6C473.8 351.8 471.933 352.4 469.4 352.4C467.4 352.4 465.667 351.933 464.2 351C462.867 350.2 461.333 348.933 459.6 347.2L391.2 284.6H390.8V343.8C390.8 346.467 390.133 348.6 388.8 350.2C387.467 351.667 385.4 352.4 382.6 352.4ZM507.2 352.4C504.667 352.4 502.733 351.733 501.4 350.4C500.067 348.933 499.4 346.867 499.4 344.2V217C499.4 214.333 500.067 212.267 501.4 210.8C502.733 209.333 504.467 208.6 506.6 208.6C508.733 208.6 510.267 209 511.2 209.8C512.267 210.467 513.467 211.733 514.8 213.6L602 329.8H597.2V216.6C597.2 214.067 597.867 212.133 599.2 210.8C600.533 209.333 602.467 208.6 605 208.6C607.4 208.6 609.2 209.333 610.4 210.8C611.733 212.133 612.4 214.067 612.4 216.6V344.4C612.4 346.933 611.8 348.933 610.6 350.4C609.533 351.733 607.933 352.4 605.8 352.4C603.8 352.4 602.2 352 601 351.2C599.8 350.4 598.533 349.133 597.2 347.4L510.2 231.2H514.8V344.2C514.8 346.867 514.133 348.933 512.8 350.4C511.467 351.733 509.6 352.4 507.2 352.4Z" fill="black"/>
</g>
</svg>
